<svg version="1.2" xmlns="http://www.w3.org/2000/svg" viewBox="0 0 363 259" width="363" height="259">
	<title>email-svg</title>
	<style>
		.s0 { fill: #80b500 } 
	</style>
	<path fill-rule="evenodd" class="s0" d="m0 2c119.5 0 238.9 0 362 0 0 84.5 0 169 0 256-119.5 0-238.9 0-362 0 0-84.5 0-169 0-256zm21 10c3.5 4.2 6 7.1 10.2 10.3 3.7 3 7.3 6 10.8 9.2 3.4 3.1 6.9 6.1 10.5 9 4.5 3.6 8.7 7.4 13 11.3 2.6 2.3 5.3 4.5 8 6.7 4.5 3.6 8.7 7.4 13 11.3 2.6 2.3 5.3 4.5 8 6.7 4.5 3.6 8.7 7.4 13 11.2 2.6 2.4 5.3 4.6 8 6.8 4.5 3.6 8.7 7.4 13 11.3 2.6 2.3 5.3 4.5 8 6.7 4.5 3.6 8.7 7.4 13 11.2 2.6 2.4 5.3 4.6 8 6.8 4.5 3.7 8.9 7.5 13.2 11.4 3 2.8 6.2 5.4 9.3 8.1 3.4-1.5 5.8-3.5 8.6-6.1 3.5-3.2 7.1-6.4 10.9-9.4 3.6-2.9 7.1-5.9 10.5-9 4.3-3.9 8.8-7.6 13.3-11.3 2.6-2.1 5.2-4.4 7.7-6.7 4.3-3.9 8.8-7.6 13.3-11.3 2.6-2.1 5.2-4.4 7.7-6.7 4.3-3.9 8.8-7.6 13.3-11.3 2.6-2.1 5.2-4.4 7.7-6.7 4.3-3.9 8.8-7.6 13.3-11.2 2.6-2.2 5.2-4.5 7.7-6.8 4.3-3.9 8.8-7.6 13.3-11.3 2.6-2.1 5.2-4.4 7.7-6.7 3.4-3.1 6.9-6.1 10.5-9 5.3-4.3 10.6-8.7 15.5-13.5q0-0.5 0-1c-105.6 0-211.2 0-320 0zm-11 7c0 72.9 0 145.9 0 221 1.7-1.6 3.3-3.3 5-5q1-1 2-2c3.8-3.7 7.4-7.5 10.8-11.5 3-3.4 6-6.6 9.1-9.9q7-7.5 13.9-15.2c3.9-4.3 7.8-8.6 11.8-12.9q3.4-3.7 6.9-7.5 1.4-1.5 2.7-3 0.7-0.7 1.4-1.5c4.1-4.5 4.1-4.5 5.5-6q1.4-1.5 2.8-3 3.4-3.8 6.9-7.6 6.4-6.9 12.6-13.8 6.1-6.8 12.4-13.5c3.2-3.4 6.2-7 9.2-10.6-1.5-3.6-3.5-5.6-6.4-8.2q-1.4-1.2-2.8-2.4c-3.6-3.1-7.3-6.1-11.1-9.1-2.6-2.2-5.2-4.5-7.7-6.8-3.3-3-6.7-5.9-10.2-8.8-6.4-5.2-12.7-10.6-18.9-16.1q-4.5-3.8-9-7.7-0.8-0.7-1.7-1.5-1.7-1.4-3.5-2.9-3.5-3-6.9-6-1.8-1.5-3.5-3-4.5-3.8-8.9-7.6c-10.7-11-10.7-11-22.4-17.9zm334.8 5.3q-1.9 1.6-3.8 3.3-1 0.8-2 1.7-4.5 3.9-9 7.7-1.8 1.5-3.5 3-24.5 21-49 42-0.9 0.7-1.8 1.5-1.7 1.5-3.4 3-4.5 3.8-8.9 7.6c-6.3 5.5-12.7 10.8-19.2 16.1-1.8 1.5-3.5 3.1-5.2 4.8 3.8 8.3 11.5 14.8 17.7 21.4q6.1 6.5 12.1 13.2c3.9 4.3 7.8 8.6 11.8 12.9q3.4 3.7 6.9 7.5 1.4 1.5 2.7 3 2.8 3 5.5 6 0.7 0.7 1.4 1.5 1.4 1.5 2.8 3 3.4 3.8 6.9 7.6 6.4 6.9 12.6 13.8 6 6.6 12 13.1 3.8 4.2 7.6 8.3 0.8 0.8 1.5 1.6 2 2.2 4 4.4c2.5 2.7 5 5.2 7.5 7.7 0-72.9 0-145.9 0-221-2.4 0-5.3 3.6-7.2 5.3zm-212.8 98.7c-7 7.4-13.9 14.9-20.7 22.5q-4.1 4.5-8.3 9-5.3 5.7-10.5 11.5c-4.4 4.9-8.9 9.8-13.4 14.7-6.3 6.7-12.4 13.4-18.5 20.2-4.5 5-9 9.9-13.6 14.8q-5.6 6.1-11.3 12.3-2.8 3.1-5.7 6.2c-0.8 0.8-0.8 0.8-1.5 1.7q-2.1 2.2-4.2 4.4c-2.6 2.9-2.6 2.9-5.3 7.7 106.9 0 213.8 0 324 0-3.4-5.1-3.4-5.1-7.3-9.4-2.4-2.3-4.6-4.6-6.8-7.1-3.5-4.1-7.1-8-10.8-11.9q-7-7.4-13.8-15.1-4.1-4.5-8.3-9-5.3-5.7-10.5-11.5c-4.4-4.9-8.9-9.8-13.4-14.7-6.3-6.7-12.4-13.4-18.5-20.2q-5.3-5.9-10.7-11.7c-4.4-4.7-8.7-9.5-12.9-14.4-5.8 4.1-10.9 8.6-16.1 13.4-3.7 3.3-7.4 6.3-11.2 9.4-2.7 2.2-5.3 4.5-8 6.9q-1.2 1.1-2.4 2.2-2.2 2-4.3 4c-4.4 4.1-4.4 4.1-7.4 4-3.3-1.2-5.2-2.9-7.7-5.4q-1.5-1.4-2.9-2.7-0.8-0.7-1.5-1.4c-2.3-2.1-4.7-4-7.1-6-3.5-2.8-7-5.8-10.4-8.9-6-5.5-12.2-11-19-15.5z"/>
</svg>