<?xml version="1.0" encoding="UTF-8"?>
<svg version="1.1" xmlns="http://www.w3.org/2000/svg" width="512" height="512">
<path d="M0 0 C1.1088707 -0.01058945 1.1088707 -0.01058945 2.24014282 -0.02139282 C32.97641168 -0.24840581 32.97641168 -0.24840581 45.9765625 3.203125 C47.16427246 3.50911621 47.16427246 3.50911621 48.37597656 3.82128906 C60.0439419 6.89604633 71.13168553 10.92025077 81.9765625 16.203125 C83.09417969 16.74710938 84.21179688 17.29109375 85.36328125 17.8515625 C121.44302103 36.39193541 149.70903432 69.86018651 162.44604492 108.31445312 C182.78005338 172.17227138 159.2394115 234.31602505 130.0234375 291.390625 C116.47098192 317.45170132 101.06482735 342.59410454 84.51293945 366.85058594 C83.7880835 367.91825195 83.06322754 368.98591797 82.31640625 370.0859375 C81.67050537 371.02840332 81.02460449 371.97086914 80.35913086 372.94189453 C78.80268125 375.04577826 78.80268125 375.04577826 78.9765625 377.203125 C80.19666016 377.38319092 80.19666016 377.38319092 81.44140625 377.56689453 C117.45891595 382.95027654 159.64615444 389.36168345 187.9765625 414.203125 C188.66878906 414.80898438 189.36101562 415.41484375 190.07421875 416.0390625 C196.76140449 422.31451069 201.28659815 429.5857161 202.41796875 438.796875 C202.80642895 451.3278491 199.66861138 460.53972752 190.9140625 470.015625 C161.56273022 496.74365102 116.79025205 503.95041077 78.97381592 508.93884277 C77.08087377 509.18932224 75.18907718 509.44841496 73.29736328 509.70800781 C31.21828551 515.2241415 -14.99931872 514.94030158 -57.0234375 509.203125 C-58.35994833 509.02918702 -59.69653934 508.85586417 -61.03320312 508.68310547 C-97.63214959 503.88753679 -150.02379247 496.18609739 -175.0234375 465.203125 C-176.92628859 462.30005731 -178.56502364 459.35171615 -180.0234375 456.203125 C-180.38953125 455.44773437 -180.755625 454.69234375 -181.1328125 453.9140625 C-183.75354633 445.93691653 -183.08401337 435.05217139 -179.47265625 427.5 C-162.50480619 400.6075584 -126.5798191 390.78515122 -97.57861328 383.99365234 C-84.85195378 381.16375786 -71.98330139 378.67619296 -59.0234375 377.203125 C-60.64479838 372.37653049 -63.35415299 368.54767202 -66.2109375 364.390625 C-77.75168578 347.3152089 -88.55263355 329.78577032 -98.58496094 311.78320312 C-99.53951805 310.07109185 -100.49846771 308.36142177 -101.46191406 306.65429688 C-122.95880805 268.54418461 -142.08051429 227.73415149 -149.0234375 184.203125 C-149.1985083 183.12160156 -149.3735791 182.04007813 -149.55395508 180.92578125 C-151.82571415 162.9123739 -151.66262243 141.81300791 -147.0234375 124.203125 C-146.81944336 123.40986816 -146.61544922 122.61661133 -146.40527344 121.79931641 C-143.33041549 110.13320687 -139.30551807 99.04637272 -134.0234375 88.203125 C-133.47945312 87.08550781 -132.93546875 85.96789062 -132.375 84.81640625 C-113.71245089 48.49891045 -80.28104236 20.47549164 -41.63525391 7.59741211 C-28.05361782 3.28767039 -14.30969323 0.09139498 0 0 Z M-21.0234375 25.203125 C-21.81121582 25.40180176 -22.59899414 25.60047852 -23.41064453 25.80517578 C-35.40698759 28.90467607 -46.20225438 33.20231426 -57.0234375 39.203125 C-58.10238281 39.780625 -59.18132812 40.358125 -60.29296875 40.953125 C-67.54312447 44.97375051 -73.77919081 49.77053815 -80.0234375 55.203125 C-81.25513672 56.23373047 -81.25513672 56.23373047 -82.51171875 57.28515625 C-93.74282392 66.93996596 -102.88791995 78.23081381 -110.0234375 91.203125 C-110.35827148 91.80850098 -110.69310547 92.41387695 -111.03808594 93.03759766 C-130.10466162 127.93927774 -132.56301871 167.11945919 -121.5949707 205.09667969 C-120.16140271 209.83010661 -118.6172055 214.52148519 -117.0234375 219.203125 C-116.75160645 220.01023926 -116.47977539 220.81735352 -116.19970703 221.64892578 C-95.2481128 283.11805496 -58.15529336 339.15997319 -20.0234375 391.203125 C-18.84504654 392.81900637 -17.66666125 394.43489188 -16.48828125 396.05078125 C-9.51659762 405.58534708 -2.39895531 414.9774773 4.9765625 424.203125 C5.73710937 425.15445312 6.49765625 426.10578125 7.28125 427.0859375 C7.84070313 427.78460938 8.40015625 428.48328125 8.9765625 429.203125 C11.99474403 427.88541246 13.71947731 426.62702291 15.68359375 423.9921875 C16.17996338 423.33476562 16.67633301 422.67734375 17.18774414 422 C17.7161792 421.28328125 18.24461426 420.5665625 18.7890625 419.828125 C19.63295532 418.70277344 19.63295532 418.70277344 20.49389648 417.5546875 C21.7016245 415.94283702 22.90602556 414.3284894 24.10742188 412.71191406 C25.97343801 410.20731874 27.85527972 407.71544655 29.7421875 405.2265625 C31.00810791 403.55230665 32.27373918 401.87783214 33.5390625 400.203125 C34.10278564 399.45885254 34.66650879 398.71458008 35.24731445 397.94775391 C45.96100028 383.68598027 55.96786503 368.92168922 65.8515625 354.078125 C66.41860901 353.22728333 66.98565552 352.37644165 67.56988525 351.49981689 C76.38181867 338.26254545 84.95609514 324.93867915 92.9765625 311.203125 C93.46656738 310.37425781 93.95657227 309.54539062 94.46142578 308.69140625 C126.55704568 254.33846937 160.29448108 188.80151385 143.72265625 124.21484375 C140.72065051 113.15908688 136.52219191 103.20348561 130.9765625 93.203125 C130.1103125 91.58470703 130.1103125 91.58470703 129.2265625 89.93359375 C125.20605391 82.68364885 120.4097142 76.44664509 114.9765625 70.203125 C114.27789062 69.37039062 113.57921875 68.53765625 112.859375 67.6796875 C90.50624011 41.72384956 57.89834462 25.68415842 23.9765625 22.203125 C8.86301189 21.25772599 -6.31084712 21.38519236 -21.0234375 25.203125 Z M58.7890625 401.515625 C57.82817961 403.12510384 56.87066491 404.73852075 55.99609375 406.39648438 C54.09988865 409.75661793 51.64280186 412.71783429 49.2890625 415.765625 C48.26616802 417.13387819 47.24538214 418.50370993 46.2265625 419.875 C19.17882814 456.03808601 19.17882814 456.03808601 14.01171875 457.91796875 C13.36074219 457.99144531 12.70976562 458.06492187 12.0390625 458.140625 C11.39066406 458.23214844 10.74226562 458.32367188 10.07421875 458.41796875 C2.18606883 457.61005768 -3.56766055 448.39166447 -8.296875 442.65966797 C-11.61174973 438.56368727 -14.81996694 434.3864134 -18.0234375 430.203125 C-18.65652832 429.3786084 -19.28961914 428.5540918 -19.94189453 427.70458984 C-21.32702367 425.89934547 -22.71061729 424.09292201 -24.09277344 422.28540039 C-25.49810246 420.44774966 -26.90628122 418.61227454 -28.31738281 416.77905273 C-31.16253349 413.06311145 -33.98207779 409.3793686 -36.47265625 405.4140625 C-37.10816406 404.41632813 -37.74367188 403.41859375 -38.3984375 402.390625 C-38.88054687 401.55917969 -39.36265625 400.72773438 -39.859375 399.87109375 C-44.2746164 396.46801058 -50.10799538 397.97973632 -55.35400391 398.59155273 C-59.13017512 399.11251926 -62.88769252 399.70556531 -66.6484375 400.328125 C-67.32474213 400.43883331 -68.00104675 400.54954163 -68.69784546 400.66360474 C-98.2856715 405.539659 -139.97708534 412.42252689 -159.0234375 438.203125 C-160.51075418 441.17775837 -160.4547427 442.87591343 -160.0234375 446.203125 C-151.88549652 462.06085189 -129.45567975 469.14814152 -113.6418457 474.3347168 C-101.61876086 478.10635356 -89.38730905 480.81467065 -77.0234375 483.203125 C-76.01265137 483.39890137 -75.00186523 483.59467773 -73.96044922 483.79638672 C-1.59400739 497.4089341 104.64369365 500.52459495 168.79296875 458.3515625 C174.20812962 454.30134334 179.0231234 450.34386555 181.0390625 443.703125 C180.92842194 437.50725391 177.3931299 434.4292811 173.1640625 430.328125 C151.34083237 411.69853831 117.62856107 405.46453241 90.23974609 400.78759766 C86.98540027 400.20470794 83.760738 399.52858783 80.52734375 398.83984375 C68.60161968 395.93498553 68.60161968 395.93498553 58.7890625 401.515625 Z " fill="#80B500" transform="translate(246.0234375,-0.203125)"/>
<path d="M0 0 C1.55849571 1.33476387 3.10125719 2.68819606 4.625 4.0625 C5.30949219 4.65417969 5.99398437 5.24585937 6.69921875 5.85546875 C16.80040601 15.16284955 22.85189954 27.03103539 26.625 40.0625 C26.86992187 40.85398438 27.11484375 41.64546875 27.3671875 42.4609375 C32.08581271 60.88296743 28.41113782 81.40288205 19.54296875 97.91015625 C16.63626482 102.68756983 13.36617974 106.91451236 9.625 111.0625 C8.73748047 112.08923828 8.73748047 112.08923828 7.83203125 113.13671875 C-1.47534955 123.23790601 -13.34353539 129.28939954 -26.375 133.0625 C-27.16648437 133.30742187 -27.95796875 133.55234375 -28.7734375 133.8046875 C-47.19546743 138.52331271 -67.71538205 134.84863782 -84.22265625 125.98046875 C-89.00006983 123.07376482 -93.22701236 119.80367974 -97.375 116.0625 C-98.05949219 115.47082031 -98.74398437 114.87914062 -99.44921875 114.26953125 C-109.55040601 104.96215045 -115.60189954 93.09396461 -119.375 80.0625 C-119.61992187 79.27101563 -119.86484375 78.47953125 -120.1171875 77.6640625 C-124.83581271 59.24203257 -121.16113782 38.72211795 -112.29296875 22.21484375 C-109.38626482 17.43743017 -106.11617974 13.21048764 -102.375 9.0625 C-101.78332031 8.37800781 -101.19164062 7.69351563 -100.58203125 6.98828125 C-91.27465045 -3.11290601 -79.40646461 -9.16439954 -66.375 -12.9375 C-65.58351562 -13.18242188 -64.79203125 -13.42734375 -63.9765625 -13.6796875 C-42.24069393 -19.2471205 -17.54439703 -13.59223453 0 0 Z M-86.375 25.0625 C-96.39142817 36.80050176 -100.37603481 50.82452573 -99.375 66.0625 C-97.15885991 80.59887651 -90.25760629 92.78602535 -78.890625 102.09765625 C-66.42650505 111.21349553 -52.76608729 114.97748622 -37.3671875 112.59765625 C-21.98660031 109.2042891 -9.61812989 100.98768471 -0.91015625 87.8125 C6.6134742 74.33505513 8.86292823 59.98843993 4.65625 45.0703125 C-0.08247372 31.24903499 -8.5179186 20.23981959 -21.375 13.0625 C-44.4536068 2.58459479 -68.72312831 6.18480389 -86.375 25.0625 Z " fill="#80B500" transform="translate(302.375,99.9375)"/>
</svg>
