<svg version="1.2" xmlns="http://www.w3.org/2000/svg" viewBox="0 0 293 360" width="293" height="360">
	<title>Indy_Towing-1243545-svg</title>
	<style>
		.s0 { fill: #000000 } 
	</style>
	<g>
		<path fill-rule="evenodd" class="s0" d="m146.9 13c1.8 0 5.6 2 10.7 5.6 38.7 27.8 75 43.3 116.9 50 9.4 1.5 11.4 2.2 13.8 4.5 2.5 2.5 2.7 3.4 2.9 11.6 1.2 55.2-8 98.9-30.7 144.8-22.8 46-56.7 84.7-99.8 113.9-13.5 9-15 9-28.9-0.3-16.3-11-26.1-19.3-43.3-36.5-23.6-23.7-38.8-44.5-53.6-73.1-22-42.7-32.9-87.8-32.9-136.3 0-19.2 0.9-24 4.7-26 1-0.5 7-1.7 13.3-2.7 38-5.5 70.4-19.1 111.8-47.2 8.1-5.4 13.3-8.3 15.1-8.3zm-0.3 13.1c-0.6 0-3.1 1.6-5.6 3.5-15.5 11.9-54 32.5-71.5 38.3-12.5 4.1-30.3 8.7-41.6 10.6-5.2 0.8-10.5 1.8-11.8 2.1l-2.4 0.5 0.6 23.2c0.6 24 1.9 35.7 6.3 55.1 15.7 70.4 58.7 133.5 118.1 173.7 4 2.7 7.5 4.9 7.8 4.9 1.1 0 14.8-9.6 24.5-17.1 20.3-15.7 45.5-43 60.4-65.4 23-34.5 37.6-71.2 44.5-111.5 3.7-21.8 5.4-59 2.9-62.1-0.8-1-5.3-2.3-11.3-3.3-38.6-6.6-70.5-19.7-107.2-44.2-6.9-4.6-13.1-8.4-13.7-8.3z"/>
		<path fill-rule="evenodd" class="s0" d="m146.8 49c1 0 7.2 3.7 13.8 8.3 26.1 17.8 53.9 29.5 81.8 34.2 19.5 3.4 19 2.5 18.3 30.5-0.4 16.4-1 23.3-3.1 34.5-4.9 25.5-10.6 42.7-21.4 64-17.7 34.9-44.1 64.9-76.3 86.7-7 4.8-10.9 6.8-13.1 6.8-3.8 0-9.5-3.2-21.3-12.1-59-44.3-92.5-111.3-92.9-185.2 0-17.7 0-17.7 2.5-20.3 2-2 4.4-2.8 11.5-3.9 32.7-5.3 58.9-16.3 91.7-38.8 3.8-2.6 7.6-4.7 8.5-4.7zm-0.3 13.8c-0.6-0.4-2.8 0.7-5 2.4-13.4 10.1-42.3 25-58.5 30.3-11.1 3.5-32.2 8.5-36.6 8.5-1.9 0-2.2 0.7-2.7 6.2-0.3 3.5-0.1 12.4 0.4 19.8 3.9 56.1 26.2 104.9 65.5 143 10.4 10.1 23.1 20.6 32.1 26.4l4.2 2.8 5.9-4.1c38-25.8 69-65.5 83.2-106.6 8.8-25.6 12-42.6 12.7-68.1l0.6-19.1-5.9-0.8c-13.5-1.6-36-8-49.9-14.3-8.6-3.8-30.4-16.1-39.5-22.1-3-2.1-6-4-6.5-4.3z"/>
		<path class="s0" d="m197.9 131.7c-2 2.1-17.7 20.4-34.9 40.8-17.2 20.3-31.6 37.4-32 37.8-0.4 0.4-6.7-6.2-14-14.8-11.3-13.2-13.7-15.5-16.1-15.5-2.9 0-5.9 3-5.9 6 0 2.1 28.4 35.1 31.6 36.8 5.9 3.1 6.3 2.7 45.5-43.2 31-36.2 36.9-43.6 36.9-46.2 0-6.5-5.7-7.4-11.1-1.7z"/>
	</g>
</svg>